<svg width="28" height="28" viewBox="0 0 28 28" fill="none" xmlns="http://www.w3.org/2000/svg">
<path d="M4.6665 4.66675H11.6665V11.6667H4.6665V4.66675ZM16.3332 4.66675H23.3332V11.6667H16.3332V4.66675ZM4.6665 16.3334H11.6665V23.3334H4.6665V16.3334ZM16.3332 19.8334C16.3332 20.7617 16.7019 21.6519 17.3583 22.3083C18.0147 22.9647 18.9049 23.3334 19.8332 23.3334C20.7614 23.3334 21.6517 22.9647 22.308 22.3083C22.9644 21.6519 23.3332 20.7617 23.3332 19.8334C23.3332 18.9052 22.9644 18.0149 22.308 17.3585C21.6517 16.7022 20.7614 16.3334 19.8332 16.3334C18.9049 16.3334 18.0147 16.7022 17.3583 17.3585C16.7019 18.0149 16.3332 18.9052 16.3332 19.8334Z" stroke="#1B583C" stroke-width="1.5" stroke-linecap="round" stroke-linejoin="round"/>
</svg>
