<svg width="28" height="28" viewBox="0 0 28 28" fill="none" xmlns="http://www.w3.org/2000/svg">
<path d="M19.8975 16.7343C19.6787 17.9572 19.0905 19.0836 18.212 19.962C17.3336 20.8404 16.2072 21.4286 14.9844 21.6475C14.9482 21.653 14.9116 21.6559 14.875 21.6562C14.71 21.6569 14.5508 21.5953 14.4291 21.4839C14.3075 21.3724 14.2322 21.2193 14.2184 21.0548C14.2047 20.8904 14.2533 20.7268 14.3547 20.5967C14.4561 20.4665 14.6028 20.3793 14.7656 20.3525C16.6666 20.0331 18.2798 18.4187 18.6025 16.5156C18.6315 16.3439 18.7275 16.1907 18.8695 16.0898C18.9398 16.0398 19.0192 16.0042 19.1033 15.9849C19.1873 15.9656 19.2743 15.9631 19.3594 15.9775C19.4444 15.9918 19.5258 16.0228 19.5988 16.0686C19.6719 16.1144 19.7352 16.1742 19.7852 16.2444C19.8352 16.3147 19.8708 16.3942 19.8901 16.4782C19.9093 16.5623 19.9119 16.6493 19.8975 16.7343ZM23.4062 15.75C23.4063 18.2447 22.4152 20.6372 20.6512 22.4012C18.8872 24.1652 16.4947 25.1562 14 25.1562C11.5053 25.1562 9.11279 24.1652 7.34878 22.4012C5.58476 20.6372 4.59375 18.2447 4.59375 15.75C4.59375 12.7454 5.78047 9.66762 8.12109 6.60184C8.1773 6.52717 8.2488 6.46538 8.33082 6.42058C8.41284 6.37578 8.50348 6.34902 8.59667 6.34208C8.68987 6.33514 8.78347 6.34819 8.87122 6.38035C8.95896 6.41251 9.03883 6.46304 9.10547 6.52855L11.9864 9.32418L14.5119 2.39965C14.5479 2.30084 14.6072 2.21213 14.6847 2.14102C14.7622 2.0699 14.8556 2.01845 14.9571 1.991C15.0587 1.96355 15.1653 1.96091 15.2681 1.9833C15.3709 2.00569 15.4667 2.05245 15.5477 2.11965C17.9069 4.08293 23.4062 9.34059 23.4062 15.75ZM22.0938 15.75C22.0938 10.4562 17.8664 5.92371 15.4142 3.74059L12.8669 10.7253C12.8294 10.8282 12.7667 10.9201 12.6846 10.9927C12.6025 11.0652 12.5036 11.116 12.3968 11.1405C12.29 11.1649 12.1788 11.1623 12.0733 11.1327C11.9678 11.1032 11.8714 11.0477 11.7928 10.9714L8.73031 7.99418C6.85453 10.6236 5.90625 13.2343 5.90625 15.75C5.90625 17.8966 6.75898 19.9552 8.27685 21.4731C9.79473 22.991 11.8534 23.8437 14 23.8437C16.1466 23.8437 18.2053 22.991 19.7231 21.4731C21.241 19.9552 22.0938 17.8966 22.0938 15.75Z" fill="black"/>
</svg>
