<svg width="33" height="33" viewBox="0 0 33 33" fill="none" xmlns="http://www.w3.org/2000/svg">
<path d="M19.9621 5.93033H12.6724C11.7912 5.92997 10.9185 6.10686 10.1043 6.45091C9.29009 6.79495 8.55024 7.2994 7.92706 7.93543C7.30388 8.57146 6.80958 9.32661 6.47239 10.1577C6.1352 10.9888 5.96174 11.8796 5.96191 12.7792V20.2207C5.96156 21.1204 6.13489 22.0113 6.472 22.8426C6.80911 23.6739 7.30339 24.4292 7.92659 25.0654C8.54979 25.7015 9.28969 26.2061 10.104 26.5502C10.9183 26.8944 11.7911 27.0713 12.6724 27.071H19.9621C20.8435 27.0713 21.7162 26.8944 22.5305 26.5502C23.3449 26.2061 24.0848 25.7015 24.708 25.0654C25.3312 24.4292 25.8254 23.6739 26.1625 22.8426C26.4996 22.0113 26.673 21.1204 26.6726 20.2207V12.7792C26.673 11.8795 26.4996 10.9886 26.1625 10.1573C25.8254 9.32603 25.3312 8.57072 24.708 7.93454C24.0848 7.29837 23.3449 6.79379 22.5305 6.44966C21.7162 6.10553 20.8435 5.92859 19.9621 5.92896V5.93033Z" stroke="#1B583C" stroke-width="2"/>
<path d="M26.5624 21.4335H28.7431C29.1093 21.4335 29.4604 21.285 29.7193 21.0207C29.9783 20.7564 30.1237 20.3979 30.1237 20.0241V12.9772C30.1237 12.6035 29.9783 12.245 29.7193 11.9807C29.4604 11.7164 29.1093 11.5679 28.7431 11.5679H26.561M6.07391 21.4335H3.89185C3.71055 21.4335 3.53102 21.397 3.36351 21.3262C3.19601 21.2554 3.04381 21.1516 2.91561 21.0207C2.7874 20.8898 2.68571 20.7345 2.61632 20.5635C2.54694 20.3925 2.51123 20.2092 2.51123 20.0241V12.9772C2.51123 12.6035 2.65669 12.245 2.91561 11.9807C3.17452 11.7164 3.52569 11.5679 3.89185 11.5679H6.07391" stroke="#1B583C" stroke-width="2"/>
<path d="M3.87842 11.5679V5.93042M28.7431 11.5679L28.7297 5.93042M12.1622 12.0492V15.7589M20.4459 12.0492V15.7589M13.5428 21.4335H19.0653" stroke="#1B583C" stroke-width="2" stroke-linecap="round" stroke-linejoin="round"/>
</svg>
